<svg width="100" height="100" viewBox="0 0 100 100" fill="none" xmlns="http://www.w3.org/2000/svg">
<path d="M57.2083 14.625L64.5417 29.2917C65.5417 31.3333 68.2083 33.2917 70.4583 33.6667L83.75 35.875C92.25 37.2917 94.25 43.4583 88.125 49.5417L77.7916 59.875C76.0416 61.625 75.0833 65 75.625 67.4167L78.5833 80.2083C80.9167 90.3333 75.5417 94.25 66.5833 88.9583L54.125 81.5833C51.875 80.25 48.1667 80.25 45.875 81.5833L33.4167 88.9583C24.5 94.25 19.0833 90.2917 21.4167 80.2083L24.375 67.4167C24.9167 65 23.9583 61.625 22.2083 59.875L11.875 49.5417C5.79165 43.4583 7.74999 37.2917 16.25 35.875L29.5417 33.6667C31.75 33.2917 34.4167 31.3333 35.4167 29.2917L42.75 14.625C46.75 6.66667 53.25 6.66667 57.2083 14.625Z" fill="#6987C9" stroke="#2B303A" stroke-width="10" stroke-linecap="round" stroke-linejoin="round"/>
</svg>
